REM DIRINDEX 1\2,1\4,1\5,1\6,1\7,1\3\8,1\3\9,1\3\10
REM DIRNAME folder01,folder02,folder03,folder04,folder05,folder06,folder07,folder08,folder09,folder10
TITLE ""
FILE "DB4500_5th_1A_05.mp3" MP3
  TRACK 01 AUDIO
    TITLE "0:"
    INDEX 01 00:00:00
  TRACK 02 AUDIO
    TITLE "8:cjc113_0238"
    INDEX 01 00:00:01
  TRACK 03 AUDIO
    TITLE "0:"
    INDEX 01 00:01:07
  TRACK 04 AUDIO
    TITLE "9:cjc113_0239"
    INDEX 01 00:01:32
  TRACK 05 AUDIO
    TITLE "0:"
    INDEX 01 00:02:59
  TRACK 06 AUDIO
    TITLE "10:cjc113_0240"
    INDEX 01 00:03:08
  TRACK 07 AUDIO
    TITLE "0:"
    INDEX 01 00:06:67
  TRACK 08 AUDIO
    TITLE "8:cjc113_0241"
    INDEX 01 00:07:41
  TRACK 09 AUDIO
    TITLE "0:"
    INDEX 01 00:08:62
  TRACK 10 AUDIO
    TITLE "9:cjc113_0242"
    INDEX 01 00:09:06
  TRACK 11 AUDIO
    TITLE "0:"
    INDEX 01 00:10:02
  TRACK 12 AUDIO
    TITLE "10:cjc113_0243"
    INDEX 01 00:10:27
  TRACK 13 AUDIO
    TITLE "0:"
    INDEX 01 00:13:39
  TRACK 14 AUDIO
    TITLE "8:cjc113_0244"
    INDEX 01 00:14:11
  TRACK 15 AUDIO
    TITLE "0:"
    INDEX 01 00:15:30
  TRACK 16 AUDIO
    TITLE "9:cjc113_0245"
    INDEX 01 00:15:52
  TRACK 17 AUDIO
    TITLE "0:"
    INDEX 01 00:16:49
  TRACK 18 AUDIO
    TITLE "10:cjc113_0246"
    INDEX 01 00:16:73
  TRACK 19 AUDIO
    TITLE "0:"
    INDEX 01 00:19:52
  TRACK 20 AUDIO
    TITLE "8:cjc113_0247"
    INDEX 01 00:20:26
  TRACK 21 AUDIO
    TITLE "0:"
    INDEX 01 00:21:29
  TRACK 22 AUDIO
    TITLE "9:cjc113_0248"
    INDEX 01 00:21:53
  TRACK 23 AUDIO
    TITLE "0:"
    INDEX 01 00:22:38
  TRACK 24 AUDIO
    TITLE "10:cjc113_0249"
    INDEX 01 00:22:60
  TRACK 25 AUDIO
    TITLE "0:"
    INDEX 01 00:26:05
  TRACK 26 AUDIO
    TITLE "8:cjc113_0250"
    INDEX 01 00:26:52
  TRACK 27 AUDIO
    TITLE "0:"
    INDEX 01 00:27:59
  TRACK 28 AUDIO
    TITLE "9:cjc113_0251"
    INDEX 01 00:28:08
  TRACK 29 AUDIO
    TITLE "0:"
    INDEX 01 00:29:25
  TRACK 30 AUDIO
    TITLE "10:cjc113_0252"
    INDEX 01 00:29:50
  TRACK 31 AUDIO
    TITLE "0:"
    INDEX 01 00:32:74
  TRACK 32 AUDIO
    TITLE "8:cjc113_0253"
    INDEX 01 00:33:48
  TRACK 33 AUDIO
    TITLE "0:"
    INDEX 01 00:34:47
  TRACK 34 AUDIO
    TITLE "9:cjc113_0254"
    INDEX 01 00:34:69
  TRACK 35 AUDIO
    TITLE "0:"
    INDEX 01 00:35:68
  TRACK 36 AUDIO
    TITLE "10:cjc113_0255"
    INDEX 01 00:36:15
  TRACK 37 AUDIO
    TITLE "0:"
    INDEX 01 00:38:61
  TRACK 38 AUDIO
    TITLE "8:cjc113_0256"
    INDEX 01 00:39:35
  TRACK 39 AUDIO
    TITLE "0:"
    INDEX 01 00:40:44
  TRACK 40 AUDIO
    TITLE "9:cjc113_0257"
    INDEX 01 00:40:68
  TRACK 41 AUDIO
    TITLE "0:"
    INDEX 01 00:42:47
  TRACK 42 AUDIO
    TITLE "10:cjc113_0258"
    INDEX 01 00:42:65
  TRACK 43 AUDIO
    TITLE "0:"
    INDEX 01 00:45:71
  TRACK 44 AUDIO
    TITLE "8:cjc113_0259"
    INDEX 01 00:46:43
  TRACK 45 AUDIO
    TITLE "0:"
    INDEX 01 00:47:50
  TRACK 46 AUDIO
    TITLE "9:cjc113_0260"
    INDEX 01 00:47:70
  TRACK 47 AUDIO
    TITLE "0:"
    INDEX 01 00:49:35
  TRACK 48 AUDIO
    TITLE "10:cjc113_0261"
    INDEX 01 00:49:53
  TRACK 49 AUDIO
    TITLE "0:"
    INDEX 01 00:52:53
  TRACK 50 AUDIO
    TITLE "10:cjc113_0262"
    INDEX 01 00:53:23
  TRACK 51 AUDIO
    TITLE "0:"
    INDEX 01 00:56:29
  TRACK 52 AUDIO
    TITLE "8:cjc113_0263"
    INDEX 01 00:56:72
  TRACK 53 AUDIO
    TITLE "0:"
    INDEX 01 00:58:18
  TRACK 54 AUDIO
    TITLE "9:cjc113_0264"
    INDEX 01 00:58:34
  TRACK 55 AUDIO
    TITLE "0:"
    INDEX 01 01:00:23
  TRACK 56 AUDIO
    TITLE "10:cjc113_0265"
    INDEX 01 01:00:43
  TRACK 57 AUDIO
    TITLE "0:"
    INDEX 01 01:04:74
  TRACK 58 AUDIO
    TITLE "8:cjc113_0266"
    INDEX 01 01:05:42
  TRACK 59 AUDIO
    TITLE "0:"
    INDEX 01 01:06:53
  TRACK 60 AUDIO
    TITLE "9:cjc113_0267"
    INDEX 01 01:06:69
  TRACK 61 AUDIO
    TITLE "0:"
    INDEX 01 01:08:17
  TRACK 62 AUDIO
    TITLE "10:cjc113_0268"
    INDEX 01 01:08:36
  TRACK 63 AUDIO
    TITLE "0:"
    INDEX 01 01:10:59
  TRACK 64 AUDIO
    TITLE "8:cjc113_0269"
    INDEX 01 01:11:27
  TRACK 65 AUDIO
    TITLE "0:"
    INDEX 01 01:12:34
  TRACK 66 AUDIO
    TITLE "9:cjc113_0270"
    INDEX 01 01:12:56
  TRACK 67 AUDIO
    TITLE "0:"
    INDEX 01 01:14:02
  TRACK 68 AUDIO
    TITLE "10:cjc113_0271"
    INDEX 01 01:14:19
  TRACK 69 AUDIO
    TITLE "0:"
    INDEX 01 01:18:02
  TRACK 70 AUDIO
    TITLE "10:cjc113_0272"
    INDEX 01 01:18:41
  TRACK 71 AUDIO
    TITLE "0:"
    INDEX 01 01:21:53
  TRACK 72 AUDIO
    TITLE "8:cjc113_0273"
    INDEX 01 01:22:25
  TRACK 73 AUDIO
    TITLE "0:"
    INDEX 01 01:23:44
  TRACK 74 AUDIO
    TITLE "9:cjc113_0274"
    INDEX 01 01:23:62
  TRACK 75 AUDIO
    TITLE "0:"
    INDEX 01 01:25:15
  TRACK 76 AUDIO
    TITLE "10:cjc113_0275"
    INDEX 01 01:25:33
  TRACK 77 AUDIO
    TITLE "0:"
    INDEX 01 01:28:31
  TRACK 78 AUDIO
    TITLE "8:cjc113_0276"
    INDEX 01 01:28:72
  TRACK 79 AUDIO
    TITLE "0:"
    INDEX 01 01:30:18
  TRACK 80 AUDIO
    TITLE "9:cjc113_0277"
    INDEX 01 01:30:36
  TRACK 81 AUDIO
    TITLE "0:"
    INDEX 01 01:31:65
  TRACK 82 AUDIO
    TITLE "10:cjc113_0278"
    INDEX 01 01:32:06
  TRACK 83 AUDIO
    TITLE "0:"
    INDEX 01 01:35:71
